<?xml version="1.0" encoding="UTF-8" standalone="no"?>
<svg
   xmlns:dc="http://purl.org/dc/elements/1.1/"
   xmlns:cc="http://creativecommons.org/ns#"
   xmlns:rdf="http://www.w3.org/1999/02/22-rdf-syntax-ns#"
   xmlns:svg="http://www.w3.org/2000/svg"
   xmlns="http://www.w3.org/2000/svg"
   xmlns:sodipodi="http://sodipodi.sourceforge.net/DTD/sodipodi-0.dtd"
   xmlns:inkscape="http://www.inkscape.org/namespaces/inkscape"
   version="1.1"
   width="208.7mm"
   height="141.7mm"
   viewBox=" 0 0 739.488797 502.087027"
   id="svg3408"
   inkscape:version="0.91 r13725"
   sodipodi:docname="caseplans.svg">
  <metadata
     id="metadata3438">
    <rdf:RDF>
      <cc:Work
         rdf:about="">
        <dc:format>image/svg+xml</dc:format>
        <dc:type
           rdf:resource="http://purl.org/dc/dcmitype/StillImage" />
      </cc:Work>
    </rdf:RDF>
  </metadata>
  <defs
     id="defs3436" />
  <sodipodi:namedview
     pagecolor="#ffffff"
     bordercolor="#666666"
     borderopacity="1"
     objecttolerance="10"
     gridtolerance="10"
     guidetolerance="10"
     inkscape:pageopacity="0"
     inkscape:pageshadow="2"
     inkscape:window-width="1301"
     inkscape:window-height="744"
     id="namedview3434"
     showgrid="false"
     showguides="true"
     inkscape:guide-bbox="true"
     inkscape:snap-others="false"
     inkscape:snap-nodes="false"
     inkscape:snap-global="false"
     inkscape:zoom="1.1398036"
     inkscape:cx="361.04582"
     inkscape:cy="269.56013"
     inkscape:window-x="65"
     inkscape:window-y="24"
     inkscape:window-maximized="1"
     inkscape:current-layer="svg3408">
    <sodipodi:guide
       position="42.185604,375.94816"
       orientation="1,0"
       id="guide3442" />
    <sodipodi:guide
       position="306.466,397.04096"
       orientation="1,0"
       id="guide3444" />
    <sodipodi:guide
       position="-98.019491,465.28238"
       orientation="0,1"
       id="guide3446" />
    <sodipodi:guide
       position="137.72359,268.00265"
       orientation="0,1"
       id="guide3448" />
    <sodipodi:guide
       position="700.4051,308.32712"
       orientation="1,0"
       id="guide3469" />
    <sodipodi:guide
       position="647.05271,335.00331"
       orientation="1,0"
       id="guide3471" />
    <sodipodi:guide
       position="656.35836,332.52181"
       orientation="1,0"
       id="guide3477" />
  </sodipodi:namedview>
  <!-- Front-->
  <g
     transform="translate(22.5000185, 22.5000185) "
     id="g3410">
    <polygon
       style="stroke:#000000; fill:none; stroke-width:0.90000074"
       points="0, 0 23.031515, 0 23.031515, 10.62993 46.06303, 10.62993 46.06303, 0 60.23627, 0 60.23627, 10.62993 74.40951, 10.62993 74.40951, 0 88.58275, 0 88.58275, 10.62993 102.75599, 10.62993 102.75599, 0 116.92922999999999, 0 116.92922999999999, 10.62993 131.10246999999998, 10.62993 131.10246999999998, 0 145.27571, 0 145.27571, 10.62993 159.44895, 10.62993 159.44895, 0 173.62219, 0 173.62219, 10.62993 187.79542999999998, 10.62993 187.79542999999998, 0 201.96867, 0 201.96867, 10.62993 216.14191, 10.62993 216.14191, 0 230.31515, 0 230.31515, 10.62993 244.48839, 10.62993 244.48839, 0 258.66163, 0 258.66163, 10.62993 281.693145, 10.62993 281.693145, 0 304.72466, 0 304.72466, 18.15946375 294.09472999999997, 18.15946375 294.09472999999997, 36.3189275 304.72466, 36.3189275 304.72466, 50.4921675 294.09472999999997, 50.4921675 294.09472999999997, 64.6654075 304.72466, 64.6654075 304.72466, 78.83864750000001 294.09472999999997, 78.83864750000001 294.09472999999997, 93.0118875 304.72466, 93.0118875 304.72466, 107.1851275 294.09472999999997, 107.1851275 294.09472999999997, 121.3583675 304.72466, 121.3583675 304.72466, 135.5316075 294.09472999999997, 135.5316075 294.09472999999997, 149.7048475 304.72466, 149.7048475 304.72466, 163.8780875 294.09472999999997, 163.8780875 294.09472999999997, 178.05132749999999 304.72466, 178.05132749999999 304.72466, 192.2245675 294.09472999999997, 192.2245675 294.09472999999997, 210.38403125000002 304.72466, 210.38403125000002 304.72466, 228.543495 281.693145, 228.543495 281.693145, 217.913565 258.66163, 217.913565 258.66163, 228.543495 244.48839, 228.543495 244.48839, 217.913565 230.31515, 217.913565 230.31515, 228.543495 216.14191, 228.543495 216.14191, 217.913565 201.96867, 217.913565 201.96867, 228.543495 187.79542999999998, 228.543495 187.79542999999998, 217.913565 173.62219, 217.913565 173.62219, 228.543495 159.44895, 228.543495 159.44895, 217.913565 145.27571, 217.913565 145.27571, 228.543495 131.10246999999998, 228.543495 131.10246999999998, 217.913565 116.92922999999999, 217.913565 116.92922999999999, 228.543495 102.75599, 228.543495 102.75599, 217.913565 88.58275, 217.913565 88.58275, 228.543495 74.40951, 228.543495 74.40951, 217.913565 60.23627, 217.913565 60.23627, 228.543495 46.06303, 228.543495 46.06303, 217.913565 23.031515, 217.913565 23.031515, 228.543495 0, 228.543495 0, 210.38403125000002 10.62993, 210.38403125000002 10.62993, 192.2245675 0, 192.2245675 0, 178.05132749999999 10.62993, 178.05132749999999 10.62993, 163.8780875 0, 163.8780875 0, 149.7048475 10.62993, 149.7048475 10.62993, 135.5316075 0, 135.5316075 0, 121.3583675 10.62993, 121.3583675 10.62993, 107.1851275 0, 107.1851275 0, 93.0118875 10.62993, 93.0118875 10.62993, 78.83864750000001 0, 78.83864750000001 0, 64.6654075 10.62993, 64.6654075 10.62993, 50.4921675 0, 50.4921675 0, 36.3189275 10.62993, 36.3189275 10.62993, 18.15946375 0, 18.15946375 "
       id="polygon3412" />
  </g>
  <!-- Back-->
  <g
     transform="translate(327.2246785, 22.5000185) "
     id="g3414">
    <polygon
       style="stroke:#000000; fill:none; stroke-width:0.90000074"
       points="0, 0 23.031515, 0 23.031515, 10.62993 46.06303, 10.62993 46.06303, 0 60.23627, 0 60.23627, 10.62993 74.40951, 10.62993 74.40951, 0 88.58275, 0 88.58275, 10.62993 102.75599, 10.62993 102.75599, 0 116.92922999999999, 0 116.92922999999999, 10.62993 131.10246999999998, 10.62993 131.10246999999998, 0 145.27571, 0 145.27571, 10.62993 159.44895, 10.62993 159.44895, 0 173.62219, 0 173.62219, 10.62993 187.79542999999998, 10.62993 187.79542999999998, 0 201.96867, 0 201.96867, 10.62993 216.14191, 10.62993 216.14191, 0 230.31515, 0 230.31515, 10.62993 244.48839, 10.62993 244.48839, 0 258.66163, 0 258.66163, 10.62993 281.693145, 10.62993 281.693145, 0 304.72466, 0 304.72466, 18.15946375 294.09472999999997, 18.15946375 294.09472999999997, 36.3189275 304.72466, 36.3189275 304.72466, 50.4921675 294.09472999999997, 50.4921675 294.09472999999997, 64.6654075 304.72466, 64.6654075 304.72466, 78.83864750000001 294.09472999999997, 78.83864750000001 294.09472999999997, 93.0118875 304.72466, 93.0118875 304.72466, 107.1851275 294.09472999999997, 107.1851275 294.09472999999997, 121.3583675 304.72466, 121.3583675 304.72466, 135.5316075 294.09472999999997, 135.5316075 294.09472999999997, 149.7048475 304.72466, 149.7048475 304.72466, 163.8780875 294.09472999999997, 163.8780875 294.09472999999997, 178.05132749999999 304.72466, 178.05132749999999 304.72466, 192.2245675 294.09472999999997, 192.2245675 294.09472999999997, 210.38403125000002 304.72466, 210.38403125000002 304.72466, 228.543495 281.693145, 228.543495 281.693145, 217.913565 258.66163, 217.913565 258.66163, 228.543495 244.48839, 228.543495 244.48839, 217.913565 230.31515, 217.913565 230.31515, 228.543495 216.14191, 228.543495 216.14191, 217.913565 201.96867, 217.913565 201.96867, 228.543495 187.79542999999998, 228.543495 187.79542999999998, 217.913565 173.62219, 217.913565 173.62219, 228.543495 159.44895, 228.543495 159.44895, 217.913565 145.27571, 217.913565 145.27571, 228.543495 131.10246999999998, 228.543495 131.10246999999998, 217.913565 116.92922999999999, 217.913565 116.92922999999999, 228.543495 102.75599, 228.543495 102.75599, 217.913565 88.58275, 217.913565 88.58275, 228.543495 74.40951, 228.543495 74.40951, 217.913565 60.23627, 217.913565 60.23627, 228.543495 46.06303, 228.543495 46.06303, 217.913565 23.031515, 217.913565 23.031515, 228.543495 0, 228.543495 0, 210.38403125000002 10.62993, 210.38403125000002 10.62993, 192.2245675 0, 192.2245675 0, 178.05132749999999 10.62993, 178.05132749999999 10.62993, 163.8780875 0, 163.8780875 0, 149.7048475 10.62993, 149.7048475 10.62993, 135.5316075 0, 135.5316075 0, 121.3583675 10.62993, 121.3583675 10.62993, 107.1851275 0, 107.1851275 0, 93.0118875 10.62993, 93.0118875 10.62993, 78.83864750000001 0, 78.83864750000001 0, 64.6654075 10.62993, 64.6654075 10.62993, 50.4921675 0, 50.4921675 0, 36.3189275 10.62993, 36.3189275 10.62993, 18.15946375 0, 18.15946375 "
       id="polygon3416" />
  </g>
  <!-- Left-->
  <g
     transform="translate(631.9493385, 22.5000185) "
     id="g3418">
    <polygon
       style="stroke:#000000; fill:none; stroke-width:0.90000074"
       points="10.62993, 0 17.716549999999998, 0 17.716549999999998, 10.62993 35.433099999999996, 10.62993 35.433099999999996, 0 49.606339999999996, 0 49.606339999999996, 10.62993 67.32289, 10.62993 67.32289, 0 74.40951, 0 74.40951, 18.15946375 85.03944, 18.15946375 85.03944, 36.3189275 74.40951, 36.3189275 74.40951, 50.4921675 85.03944, 50.4921675 85.03944, 64.6654075 74.40951, 64.6654075 74.40951, 78.83864750000001 85.03944, 78.83864750000001 85.03944, 93.0118875 74.40951, 93.0118875 74.40951, 107.1851275 85.03944, 107.1851275 85.03944, 121.3583675 74.40951, 121.3583675 74.40951, 135.5316075 85.03944, 135.5316075 85.03944, 149.7048475 74.40951, 149.7048475 74.40951, 163.8780875 85.03944, 163.8780875 85.03944, 178.05132749999999 74.40951, 178.05132749999999 74.40951, 192.2245675 85.03944, 192.2245675 85.03944, 210.38403125000002 74.40951, 210.38403125000002 74.40950999999998, 228.543495 67.32289, 228.543495 67.32289, 217.913565 49.606339999999996, 217.913565 49.606339999999996, 228.543495 35.433099999999996, 228.543495 35.433099999999996, 217.913565 17.716549999999998, 217.913565 17.716549999999998, 228.543495 10.62993, 228.543495 10.62993, 210.38403125000002 0, 210.38403125000002 0, 192.2245675 10.62993, 192.2245675 10.62993, 178.05132749999999 0, 178.05132749999999 0, 163.8780875 10.62993, 163.8780875 10.62993, 149.7048475 0, 149.7048475 0, 135.5316075 10.62993, 135.5316075 10.62993, 121.3583675 0, 121.3583675 0, 107.1851275 10.62993, 107.1851275 10.62993, 93.0118875 0, 93.0118875 0, 78.83864750000001 10.62993, 78.83864750000001 10.62993, 64.6654075 0, 64.6654075 0, 50.4921675 10.62993, 50.4921675 10.62993, 36.3189275 0, 36.3189275 0, 18.15946375 10.62993, 18.15946375 "
       id="polygon3420" />
  </g>
  <!-- Right-->
  <g
     transform="translate(631.9493385, 251.0435135) "
     id="g3422">
    <polygon
       style="stroke:#000000; fill:none; stroke-width:0.90000074"
       points="10.62993, 0 17.716549999999998, 0 17.716549999999998, 10.62993 35.433099999999996, 10.62993 35.433099999999996, 0 49.606339999999996, 0 49.606339999999996, 10.62993 67.32289, 10.62993 67.32289, 0 74.40951, 0 74.40951, 18.15946375 85.03944, 18.15946375 85.03944, 36.3189275 74.40951, 36.3189275 74.40951, 50.4921675 85.03944, 50.4921675 85.03944, 64.6654075 74.40951, 64.6654075 74.40951, 78.83864750000001 85.03944, 78.83864750000001 85.03944, 93.0118875 74.40951, 93.0118875 74.40951, 107.1851275 85.03944, 107.1851275 85.03944, 121.3583675 74.40951, 121.3583675 74.40951, 135.5316075 85.03944, 135.5316075 85.03944, 149.7048475 74.40951, 149.7048475 74.40951, 163.8780875 85.03944, 163.8780875 85.03944, 178.05132749999999 74.40951, 178.05132749999999 74.40951, 192.2245675 85.03944, 192.2245675 85.03944, 210.38403125000002 74.40951, 210.38403125000002 74.40950999999998, 228.543495 67.32289, 228.543495 67.32289, 217.913565 49.606339999999996, 217.913565 49.606339999999996, 228.543495 35.433099999999996, 228.543495 35.433099999999996, 217.913565 17.716549999999998, 217.913565 17.716549999999998, 228.543495 10.62993, 228.543495 10.62993, 210.38403125000002 0, 210.38403125000002 0, 192.2245675 10.62993, 192.2245675 10.62993, 178.05132749999999 0, 178.05132749999999 0, 163.8780875 10.62993, 163.8780875 10.62993, 149.7048475 0, 149.7048475 0, 135.5316075 10.62993, 135.5316075 10.62993, 121.3583675 0, 121.3583675 0, 107.1851275 10.62993, 107.1851275 10.62993, 93.0118875 0, 93.0118875 0, 78.83864750000001 10.62993, 78.83864750000001 10.62993, 64.6654075 0, 64.6654075 0, 50.4921675 10.62993, 50.4921675 10.62993, 36.3189275 0, 36.3189275 0, 18.15946375 10.62993, 18.15946375 "
       id="polygon3424" />
  </g>
  <!-- Top-->
  <g
     transform="translate(22.5000185, 251.0435135) "
     id="g3426">
    <polygon
       style="stroke:#000000; fill:none; stroke-width:0.90000074"
       points="10.62993, 10.62993 23.031515, 10.62993 23.031515, 0 46.06303, 0 46.06303, 10.62993 60.23627, 10.62993 60.23627, 0 74.40951, 0 74.40951, 10.62993 88.58275, 10.62993 88.58275, 0 102.75599, 0 102.75599, 10.62993 116.92922999999999, 10.62993 116.92922999999999, 0 131.10246999999998, 0 131.10246999999998, 10.62993 145.27571, 10.62993 145.27571, 0 159.44895, 0 159.44895, 10.62993 173.62219, 10.62993 173.62219, 0 187.79542999999998, 0 187.79542999999998, 10.62993 201.96867, 10.62993 201.96867, 0 216.14191, 0 216.14191, 10.62993 230.31515, 10.62993 230.31515, 0 244.48839, 0 244.48839, 10.62993 258.66163, 10.62993 258.66163, 0 281.693145, 0 281.693145, 10.62993 294.09472999999997, 10.62993 294.09472999999997, 17.716549999999998 304.72466, 17.716549999999998 304.72466, 35.433099999999996 294.09472999999997, 35.433099999999996 294.09472999999997, 49.606339999999996 304.72466, 49.606339999999996 304.72466, 67.32289 294.09472999999997, 67.32289 294.09472999999997, 74.40951 281.693145, 74.40951 281.693145, 85.03944 258.66163, 85.03944 258.66163, 74.40951 244.48839, 74.40951 244.48839, 85.03944 230.31515, 85.03944 230.31515, 74.40951 216.14191, 74.40951 216.14191, 85.03944 201.96867, 85.03944 201.96867, 74.40951 187.79542999999998, 74.40951 187.79542999999998, 85.03944 173.62219, 85.03944 173.62219, 74.40951 159.44895, 74.40951 159.44895, 85.03944 145.27571, 85.03944 145.27571, 74.40951 131.10246999999998, 74.40951 131.10246999999998, 85.03944 116.92922999999999, 85.03944 116.92922999999999, 74.40951 102.75599, 74.40951 102.75599, 85.03944 88.58275, 85.03944 88.58275, 74.40951 74.40951, 74.40951 74.40951, 85.03944 60.23627, 85.03944 60.23627, 74.40951 46.06303, 74.40951 46.06303, 85.03944 23.031515, 85.03944 23.031515, 74.40951 10.62993, 74.40950999999998 10.62993, 67.32289 0, 67.32289 0, 49.606339999999996 10.62993, 49.606339999999996 10.62993, 35.433099999999996 0, 35.433099999999996 0, 17.716549999999998 10.62993, 17.716549999999998 "
       id="polygon3428" />
  </g>
  <!-- Bottom-->
  <g
     transform="translate(327.2246785, 251.0435135) "
     id="g3430">
    <polygon
       style="stroke:#000000; fill:none; stroke-width:0.90000074"
       points="10.62993, 10.62993 23.031515, 10.62993 23.031515, 0 46.06303, 0 46.06303, 10.62993 60.23627, 10.62993 60.23627, 0 74.40951, 0 74.40951, 10.62993 88.58275, 10.62993 88.58275, 0 102.75599, 0 102.75599, 10.62993 116.92922999999999, 10.62993 116.92922999999999, 0 131.10246999999998, 0 131.10246999999998, 10.62993 145.27571, 10.62993 145.27571, 0 159.44895, 0 159.44895, 10.62993 173.62219, 10.62993 173.62219, 0 187.79542999999998, 0 187.79542999999998, 10.62993 201.96867, 10.62993 201.96867, 0 216.14191, 0 216.14191, 10.62993 230.31515, 10.62993 230.31515, 0 244.48839, 0 244.48839, 10.62993 258.66163, 10.62993 258.66163, 0 281.693145, 0 281.693145, 10.62993 294.09472999999997, 10.62993 294.09472999999997, 17.716549999999998 304.72466, 17.716549999999998 304.72466, 35.433099999999996 294.09472999999997, 35.433099999999996 294.09472999999997, 49.606339999999996 304.72466, 49.606339999999996 304.72466, 67.32289 294.09472999999997, 67.32289 294.09472999999997, 74.40951 281.693145, 74.40951 281.693145, 85.03944 258.66163, 85.03944 258.66163, 74.40951 244.48839, 74.40951 244.48839, 85.03944 230.31515, 85.03944 230.31515, 74.40951 216.14191, 74.40951 216.14191, 85.03944 201.96867, 85.03944 201.96867, 74.40951 187.79542999999998, 74.40951 187.79542999999998, 85.03944 173.62219, 85.03944 173.62219, 74.40951 159.44895, 74.40951 159.44895, 85.03944 145.27571, 85.03944 145.27571, 74.40951 131.10246999999998, 74.40951 131.10246999999998, 85.03944 116.92922999999999, 85.03944 116.92922999999999, 74.40951 102.75599, 74.40951 102.75599, 85.03944 88.58275, 85.03944 88.58275, 74.40951 74.40951, 74.40951 74.40951, 85.03944 60.23627, 85.03944 60.23627, 74.40951 46.06303, 74.40951 46.06303, 85.03944 23.031515, 85.03944 23.031515, 74.40951 10.62993, 74.40950999999998 10.62993, 67.32289 0, 67.32289 0, 49.606339999999996 10.62993, 49.606339999999996 10.62993, 35.433099999999996 0, 35.433099999999996 0, 17.716549999999998 10.62993, 17.716549999999998 "
       id="polygon3432" />
  </g>
  <rect
     style="fill:none;fill-rule:evenodd;stroke:#000000;stroke-width:1.08194435px;stroke-linecap:butt;stroke-linejoin:miter;stroke-opacity:1"
     id="rect3452"
     width="171.41347"
     height="9.547986"
     x="129.51332"
     y="42.123409"
     ry="4.8118806" />
  <rect
     style="fill:none;fill-rule:evenodd;stroke:#000000;stroke-width:0.98534405px;stroke-linecap:butt;stroke-linejoin:miter;stroke-opacity:1"
     id="rect3452-3"
     width="140.74706"
     height="9.6445942"
     x="161.77513"
     y="220.57681"
     ry="4.860568" />
  <rect
     style="fill:none;fill-rule:evenodd;stroke:#000000;stroke-width:1.22209382;stroke-linecap:butt;stroke-linejoin:miter;stroke-miterlimit:4;stroke-dasharray:none;stroke-opacity:1"
     id="rect3473"
     width="24.289738"
     height="24.289738"
     x="660.95648"
     y="48.445721"
     ry="15.798544" />
  <rect
     style="fill:none;fill-rule:evenodd;stroke:#000000;stroke-width:1.03729844px;stroke-linecap:butt;stroke-linejoin:miter;stroke-opacity:1"
     id="rect3475"
     width="29.435167"
     height="30.852491"
     x="657.61926"
     y="169.53452"
     ry="6.9104056" />
</svg>
